<svg id="Lager_2" data-name="Lager 2" xmlns="http://www.w3.org/2000/svg" viewBox="0 0 1035 243.89"><defs><style>.cls-1{fill:#322214;}</style></defs><title>Monkyloga</title><path class="cls-1" d="M253.08,643.44h-46.3V529.62l-33.45,73.86H141.21l-33.45-73.86V643.44H63.88v-170h54.06l40.6,85.27L199,473.46h54.06Z" transform="translate(-39.7 -431)"/><path class="cls-1" d="M254.08,644.44h-48.3V534.26L174,604.48H140.56l-31.8-70.22V644.44H62.88v-172h55.69l40,83.94,39.85-83.94h55.69Zm-46.3-2h44.3v-168H199.65l-41.11,86.6-41.23-86.6H64.88v168h41.88V525l35.09,77.49h30.83L207.78,525Z" transform="translate(-39.7 -431)"/><path class="cls-1" d="M474.63,558.51q0,40.63-24.72,64.55T381.55,647q-43.51,0-68.24-23.92t-24.72-64.55q0-41,24.72-64.79t68.24-23.8q43.4,0,68.24,23.8T474.63,558.51Zm-61.69,43A49.73,49.73,0,0,0,423,583.22a84.24,84.24,0,0,0,3.27-24.83q0-15.3-3.75-26T412.7,515a36.62,36.62,0,0,0-14.24-9.93A47.83,47.83,0,0,0,365,505a39.22,39.22,0,0,0-14.37,9.82q-6.06,6.4-9.87,17.64A81,81,0,0,0,337,558.51q0,15.18,3.7,25.85a50.17,50.17,0,0,0,9.75,17.41,37.25,37.25,0,0,0,14.18,9.93,46,46,0,0,0,17.09,3.2,45.49,45.49,0,0,0,17.09-3.25A37.28,37.28,0,0,0,412.94,601.54Z" transform="translate(-39.7 -431)"/><path class="cls-1" d="M381.55,648c-29.14,0-52.33-8.14-68.93-24.2s-25-38-25-65.27c0-27.48,8.42-49.52,25-65.51s39.79-24.08,68.93-24.08S433.8,477,450.48,493s25.15,38,25.15,65.51c0,27.24-8.42,49.21-25,65.27S410.77,648,381.55,648Zm0-177.06c-28.6,0-51.33,7.91-67.54,23.52s-24.42,37.15-24.42,64.07c0,26.68,8.22,48.16,24.42,63.83S353,646,381.55,646s51.45-8,67.66-23.64,24.42-37.15,24.42-63.83c0-26.91-8.25-48.47-24.53-64.07S410.08,470.92,381.55,470.92Zm.12,145a47.33,47.33,0,0,1-17.45-3.27,38.16,38.16,0,0,1-14.56-10.19,51.57,51.57,0,0,1-10-17.75c-2.49-7.18-3.75-16-3.75-26.18a82.44,82.44,0,0,1,3.87-26.41c2.58-7.6,6-13.66,10.1-18A40.21,40.21,0,0,1,364.65,504a48.83,48.83,0,0,1,34.16.11,38,38,0,0,1,14.63,10.2,50.87,50.87,0,0,1,10,17.69c2.53,7.23,3.81,16.1,3.81,26.36A85.66,85.66,0,0,1,424,583.52,51.31,51.31,0,0,1,413.7,602.2h0a38.49,38.49,0,0,1-14.56,10.37A46.82,46.82,0,0,1,381.67,615.9Zm0-112.9a45.75,45.75,0,0,0-16.31,2.9,38.22,38.22,0,0,0-14,9.57c-3.92,4.14-7.17,9.95-9.66,17.27A80.79,80.79,0,0,0,338,558.51c0,10,1.22,18.55,3.64,25.53a49.43,49.43,0,0,0,9.56,17.06,36.25,36.25,0,0,0,13.8,9.67,45.31,45.31,0,0,0,16.72,3.13,44.75,44.75,0,0,0,16.72-3.18,36.45,36.45,0,0,0,13.8-9.84,49.16,49.16,0,0,0,9.86-18,83.73,83.73,0,0,0,3.22-24.54c0-10-1.24-18.68-3.7-25.7a48.88,48.88,0,0,0-9.61-17A35.83,35.83,0,0,0,398.1,506,45.83,45.83,0,0,0,381.67,503Z" transform="translate(-39.7 -431)"/><path class="cls-1" d="M674.25,643.44H629.41l-76.6-116.67V643.44H510.15v-170h55.63l65.81,97.37V473.46h42.66Z" transform="translate(-39.7 -431)"/><path class="cls-1" d="M675.25,644.44H628.87l-.3-.45L553.81,530.11V644.44H509.15v-172h57.16l.29.44,64,94.67V472.46h44.66Zm-45.3-2h43.3v-168H632.59V574.1l-67.34-99.64h-54.1v168h40.66v-119Z" transform="translate(-39.7 -431)"/><path class="cls-1" d="M888.78,643.44H831.59l-53.94-68L766.85,588v55.47H720.31v-170h46.54v77l64.47-77h53.94l-70.54,78.65Z" transform="translate(-39.7 -431)"/><path class="cls-1" d="M890.88,644.44H831.11l-.3-.38L777.62,577l-9.77,11.36v56.1H719.31v-172h48.54v75.26l63-75.26H887.5L816,552.15Zm-58.81-2h54.61l-73.27-90.36L883,474.46H831.79l-65.94,78.76V474.46H721.31v168h44.54V587.6l11.83-13.76Z" transform="translate(-39.7 -431)"/><path class="cls-1" d="M1070.46,473.46l-66.54,104.22v65.76H957.38v-63.7L889.75,473.46h53L981.65,539l37.61-65.57Z" transform="translate(-39.7 -431)"/><path class="cls-1" d="M1004.92,644.44H956.38V580L887.93,472.46h55.38L981.63,537l37-64.58h53.6L1004.92,578Zm-46.54-2h44.54V577.39l65.71-102.93h-48.79L981.66,541l-39.49-66.55h-50.6l66.81,105Z" transform="translate(-39.7 -431)"/><circle class="cls-1" cx="410.79" cy="49.4" r="44.4"/><path class="cls-1" d="M450.49,529.8a49.4,49.4,0,1,1,49.4-49.4A49.45,49.45,0,0,1,450.49,529.8Zm0-88.8a39.4,39.4,0,1,0,39.4,39.4A39.44,39.44,0,0,0,450.49,441Z" transform="translate(-39.7 -431)"/><circle class="cls-1" cx="267.18" cy="49.4" r="44.4"/><path class="cls-1" d="M306.88,529.8a49.4,49.4,0,1,1,49.4-49.4A49.45,49.45,0,0,1,306.88,529.8Zm0-88.8a39.4,39.4,0,1,0,39.4,39.4A39.44,39.44,0,0,0,306.88,441Z" transform="translate(-39.7 -431)"/><rect class="cls-1" x="1" y="223" width="1033" height="19.89" rx="9.94"/><path class="cls-1" d="M1063.76,674.89H50.65a10.95,10.95,0,1,1,0-21.89H1063.76a10.95,10.95,0,0,1,0,21.89ZM50.65,655a8.95,8.95,0,1,0,0,17.89H1063.76a8.95,8.95,0,0,0,0-17.89Z" transform="translate(-39.7 -431)"/></svg>